<svg width="118" height="23" xmlns="http://www.w3.org/2000/svg" xmlns:xlink="http://www.w3.org/1999/xlink" xmlns:svgjs="http://svgjs.com/svgjs" viewBox="0 0.406 118 22.188" fill="#151515"><svg xmlns="http://www.w3.org/2000/svg" width="118" height="23" viewBox="2 2 117 22"><path paint-order="stroke fill markers" fill-rule="evenodd" d="M3 3h17L10 20h9v4H2L12 8H3V3zm32 21c-6.075 0-11-4.925-11-11 0-.666.07-1.315.183-1.949l5.726 5.09c1.057 1.71 2.933 2.859 5.09 2.859a6 6 0 1 0 0-12c-2.243 0-4.175 1.246-5.205 3.07l-3.822-3.345C27.959 3.871 31.259 2 35 2c6.075 0 11 4.925 11 11s-4.925 11-11 11zm17 0V14l5 3v7h-5zm0-16l19 16V2h-5v11L52 2v6zm41-6H78v22h15v-4H83v-5h9v-4h-9V6h10V2zm26 22h-6l-5-6.875L103 24h-6l8-11-8-11h6l5 6.875L113 2h6l-8 11 8 11z"/></svg></svg>